
<svg xmlns="http://www.w3.org/2000/svg" viewBox="0 0 24 24" fill="#8B0000">
  <path d="M21.96 9.73a1 1 0 0 0-.866-.597h-3.439l.708-4.248a1 1 0 0 0-1.93-.5l-1.97 7.773H11.07l.708-4.248a1 1 0 0 0-1.93-.5l-1.97 7.773H4.866a1 1 0 0 0-.97 1.263l.5 2a1 1 0 0 0 .97.737h3.092l-.398 1.5H4.866a1 1 0 0 0-.97 1.263l.5 2a1 1 0 0 0 .97.737h3.44l-.708 4.248a1 1 0 0 0 1.93.5l1.97-7.773h3.392l-.708 4.248a1 1 0 0 0 1.93.5l1.97-7.773h3.012a1 1 0 0 0 .97-1.263l-.5-2a1 1 0 0 0-.97-.737h-3.092l.398-1.5h3.092a1 1 0 0 0 .97-1.263l-.5-2zM14.134 16h-3.392l.398-1.5h3.392l-.398 1.5z"/>
</svg>
